<svg xmlns="http://www.w3.org/2000/svg" xmlns:xlink="http://www.w3.org/1999/xlink" width="1080" zoomAndPan="magnify" viewBox="0 0 810 809.999993" height="1080" preserveAspectRatio="xMidYMid meet" version="1.2"><g id="afd3affcf2"><path style=" stroke:none;fill-rule:nonzero;fill:#ef9645;fill-opacity:1;" d="M 119.671875 198.632812 C 140.082031 184.367188 170.855469 187.101562 189.183594 202.238281 L 168.160156 171.683594 C 151.246094 147.558594 157.304688 121.457031 181.453125 104.519531 C 205.601562 87.644531 238.910156 93.464844 255.851562 117.65625 L 447.578125 390.882812 L 449.097656 390.210938 L 274.027344 133.007812 C 256.957031 108.644531 260.148438 77.765625 284.515625 60.675781 C 308.878906 43.648438 342.496094 49.535156 359.566406 73.941406 L 585.84375 393.597656 C 602.933594 417.984375 594.550781 451.386719 570.1875 468.453125 C 566.039062 471.363281 561.566406 473.363281 557.003906 474.945312 L 557.003906 673.191406 L 339.847656 673.191406 L 339.847656 605.589844 C 336.675781 602.789062 318.847656 589.019531 316.328125 585.414062 L 106.402344 274.164062 C 89.179688 249.644531 95.132812 215.832031 119.671875 198.632812 Z M 119.671875 198.632812 "/><path style=" stroke:none;fill-rule:nonzero;fill:#ffdc5d;fill-opacity:1;" d="M 72.632812 376.464844 C 72.632812 376.464844 48.050781 340.632812 83.90625 316.074219 C 119.714844 291.511719 144.273438 327.324219 144.273438 327.324219 L 258.304688 493.621094 C 262.234375 487.0625 266.535156 480.59375 271.332031 474.207031 L 113.070312 243.433594 C 113.070312 243.433594 88.507812 207.625 124.339844 183.0625 C 160.148438 158.503906 184.710938 194.3125 184.710938 194.3125 L 333.570312 411.40625 C 339.109375 406.890625 344.777344 402.351562 350.617188 397.898438 L 178.042969 146.191406 C 178.042969 146.191406 153.480469 110.382812 189.3125 85.820312 C 225.121094 61.261719 249.683594 97.070312 249.683594 97.070312 L 422.257812 348.734375 C 428.601562 344.847656 434.875 341.480469 441.171875 337.917969 L 279.867188 102.695312 C 279.867188 102.695312 255.308594 66.882812 291.117188 42.324219 C 326.925781 17.761719 351.488281 53.574219 351.488281 53.574219 L 522.042969 302.304688 L 535.703125 322.21875 L 547.972656 340.136719 C 440.523438 413.839844 430.292969 552.492188 491.683594 642.027344 C 503.953125 659.945312 521.871094 647.675781 521.871094 647.675781 C 448.1875 540.203125 470.683594 419.441406 578.15625 345.757812 L 546.472656 187.191406 C 546.472656 187.191406 534.636719 145.410156 576.398438 133.550781 C 618.179688 121.71875 630.035156 163.5 630.035156 163.5 L 666.625 272.164062 C 681.132812 315.25 696.574219 358.179688 717.007812 398.789062 C 774.707031 513.449219 740.242188 655.949219 631.445312 730.585938 C 512.769531 811.953125 350.53125 781.703125 269.140625 663.050781 C 264.839844 656.75 261.234375 650.605469 257.804688 644.480469 L 256.847656 645.132812 Z M 72.632812 376.464844 "/><path style=" stroke:none;fill-rule:nonzero;fill:#5ac8b3;fill-opacity:1;" d="M 274.699219 695.816406 C 187.835938 695.816406 100.0625 608.042969 100.0625 521.179688 C 100.0625 509.171875 91.265625 499.464844 79.257812 499.464844 C 67.25 499.464844 56.628906 509.171875 56.628906 521.179688 C 56.628906 651.472656 144.40625 739.25 274.699219 739.25 C 286.707031 739.25 296.414062 728.628906 296.414062 716.621094 C 296.414062 704.613281 286.707031 695.816406 274.699219 695.816406 Z M 274.699219 695.816406 "/><path style=" stroke:none;fill-rule:nonzero;fill:#5ac8b3;fill-opacity:1;" d="M 166.121094 738.335938 C 100.972656 738.335938 57.542969 694.90625 57.542969 629.757812 C 57.542969 617.75 47.835938 608.042969 35.824219 608.042969 C 23.816406 608.042969 14.109375 617.75 14.109375 629.757812 C 14.109375 716.621094 79.257812 781.769531 166.121094 781.769531 C 178.128906 781.769531 187.835938 772.0625 187.835938 760.054688 C 187.835938 748.042969 178.128906 738.335938 166.121094 738.335938 Z M 535.289062 43.433594 C 523.300781 43.433594 513.574219 53.160156 513.574219 65.148438 C 513.574219 77.132812 523.300781 86.863281 535.289062 86.863281 C 622.152344 86.863281 709.015625 164.800781 709.015625 260.589844 C 709.015625 272.578125 718.746094 282.304688 730.730469 282.304688 C 742.71875 282.304688 752.449219 272.578125 752.449219 260.589844 C 752.449219 140.847656 665.585938 43.433594 535.289062 43.433594 Z M 535.289062 43.433594 "/><path style=" stroke:none;fill-rule:nonzero;fill:#5ac8b3;fill-opacity:1;" d="M 643.867188 0.910156 C 631.882812 0.910156 622.152344 9.730469 622.152344 21.714844 C 622.152344 33.703125 631.882812 44.34375 643.867188 44.34375 C 709.015625 44.34375 751.535156 92.660156 751.535156 152.011719 C 751.535156 163.996094 762.15625 173.726562 774.164062 173.726562 C 786.171875 173.726562 794.96875 163.996094 794.96875 152.011719 C 794.96875 68.6875 730.730469 0.910156 643.867188 0.910156 Z M 643.867188 0.910156 "/></g></svg>